<svg width="36" height="43" viewBox="0 0 36 43" fill="none" xmlns="http://www.w3.org/2000/svg">
<path d="M0 6C0 2.68629 2.68629 0 6 0H30C33.3137 0 36 2.68629 36 6V22C36 30.2843 29.2843 37 21 37H15C6.71573 37 0 30.2843 0 22V6Z" fill="#1E1E2C"/>
<path d="M13.824 9.72L10.8 27H6.456L9.504 9.72H13.824ZM21.2944 22.8L25.8544 9.72H30.5344L23.9824 27H16.3024L16.1104 9.72H20.8144L20.7424 22.8H21.2944Z" fill="white"/>
<path d="M10.6667 43H9.33333C8.53333 43 8 42.45 8 41.625C8 40.8 8.53333 40.25 9.33333 40.25H10.6667C14.4 40.25 17.3333 37.225 17.3333 33.375C17.3333 32.55 17.8667 32 18.6667 32C19.4667 32 20 32.55 20 33.375C20 38.7375 15.8667 43 10.6667 43Z" fill="#1E1E2C"/>
</svg>
